Coordinates
version=1
nRows=19
nColumns=36
inDegrees=yes

Units are S.I. units (second, meters, Newtons, ...)
If the header above contains a line with 'inDegrees', this indicates whether rotational values are in degrees (yes) or radians (no).

endheader
time	pelvis_tilt	pelvis_list	pelvis_rotation	pelvis_tx	pelvis_ty	pelvis_tz	hip_flexion_r	hip_adduction_r	hip_rotation_r	knee_angle_r	knee_angle_r_beta	ankle_angle_r	subtalar_angle_r	mtp_angle_r	hip_flexion_l	hip_adduction_l	hip_rotation_l	knee_angle_l	knee_angle_l_beta	ankle_angle_l	subtalar_angle_l	mtp_angle_l	lumbar_extension	lumbar_bending	lumbar_rotation	arm_flex_r	arm_add_r	arm_rot_r	elbow_flex_r	pro_sup_r	arm_flex_l	arm_add_l	arm_rot_l	elbow_flex_l	pro_sup_l
      0.68000000	      1.81762530	      2.60730159	     -6.95078327	      0.74974722	      0.93337644	     -0.20392344	    -17.06468992	     -4.15964139	      6.44499887	     24.63188719	      0.42990753	      5.99271824	      6.19105865	     -6.70922604	     21.45055559	      4.48206857	     12.47999380	     21.03246392	      0.36708575	      0.58993113	     -3.77372590	     -6.70922604	     -4.30257651	     -3.26314737	      6.15027901	     -8.65389863	     -6.38092307	    -15.06147022	     41.59723061	    111.63977399	    -11.25174183	     -5.72380952	    -24.76766209	     24.21076177	    107.56097495
      0.69000000	      1.98098135	      2.93795346	     -6.60754439	      0.76355815	      0.93552062	     -0.20583533	    -15.50287166	     -4.62882063	      6.00313214	     28.56244549	      0.49850872	      2.85876459	      5.80071119	     -6.72167380	     20.48645716	      5.29911114	     13.13769192	     21.33333578	      0.37233695	      1.17501184	     -4.35649627	     -6.72167380	     -4.26887972	     -3.74312688	      5.54457671	     -8.98974374	     -6.09346872	    -15.02134585	     41.09109853	    111.64457572	    -10.73948050	     -6.01570312	    -24.04837395	     24.13346678	    107.69037268
      0.70000000	      2.11870110	      3.20344607	     -6.28694253	      0.77687087	      0.93769760	     -0.20761091	    -13.67855659	     -5.00502759	      5.78758610	     32.67177429	      0.57023003	     -0.42313749	      5.52929635	     -6.73188688	     19.38488847	      5.94145823	     13.59511973	     21.24324689	      0.37076460	      1.81237098	     -4.64830569	     -6.73188688	     -4.33096632	     -4.15175346	      4.93410964	     -9.27461395	     -5.83473450	    -14.99509559	     40.64776634	    111.64897810	    -10.13024117	     -6.27729331	    -23.34402562	     24.17105701	    107.82301538
      0.71000000	      2.50193921	      3.17227956	     -6.02734567	      0.78959791	      0.94024197	     -0.20922176	    -12.04776158	     -5.01305907	      6.03685658	     36.69943724	      0.64052601	     -3.03862815	      5.66979823	     -6.73626179	     17.90926974	      6.21449736	     14.02699529	     20.97449371	      0.36607397	      2.31715687	     -4.66586410	     -6.73626179	     -4.82517847	     -4.18754111	      4.23881688	     -9.34258192	     -5.65780090	    -14.99470732	     40.38393781	    111.64595955	     -9.43007922	     -6.38218812	    -22.91166081	     24.32771453	    107.91429289
      0.72000000	      2.02050837	      3.50075298	     -5.85622382	      0.80227309	      0.94146423	     -0.21053529	     -9.09646123	     -5.35856971	      6.08531197	     40.98680470	      0.71535469	     -7.03736252	      4.28101258	     -6.78199642	     17.39723580	      6.68167183	     14.07795803	     20.60589955	      0.35964079	      3.02306692	     -4.66268285	     -6.78199642	     -4.03712449	     -4.59072089	      4.03108498	     -9.75360892	     -5.41816581	    -14.82343010	     39.51992529	    111.73824584	     -8.74777684	     -7.07782775	    -19.86152317	     23.75487803	    108.33881910
      0.73000000	      1.97887985	      3.72357153	     -5.81592686	      0.81449514	      0.94324598	     -0.21167846	     -6.66289358	     -5.63865350	      6.44098663	     44.92086013	      0.78401691	     -9.08218489	      4.77299653	     -6.78969381	     16.23630694	      7.02817965	     14.18866412	     19.90451224	      0.34739927	      3.66662878	     -4.52121286	     -6.78969381	     -3.94881266	     -4.89967040	      3.59849621	     -9.93468876	     -5.17355124	    -14.84856516	     39.21395563	    111.73510772	     -8.09969708	     -7.27479156	    -19.41511379	     24.05035420	    108.40432065
      0.74000000	      1.62833065	      3.88513136	     -5.82161735	      0.82625329	      0.94443555	     -0.21262397	     -3.78107378	     -5.75978014	      6.89616916	     48.75894167	      0.85100407	    -10.18672576	      5.06445730	     -6.80314719	     15.55078736	      7.22885761	     14.05627179	     19.40640309	      0.33870563	      4.19436939	     -4.26490450	     -6.80314719	     -3.50604079	     -5.11204674	      3.30319290	    -10.08424198	     -5.00689030	    -14.83686452	     38.62252919	    111.74283729	     -7.45774272	     -7.54734432	    -18.45195231	     24.38990406	    108.54584416
      0.75000000	      1.34852406	      4.02918670	     -5.93086518	      0.83787108	      0.94575979	     -0.21322966	     -1.03268625	     -5.78967903	      7.50210379	     52.13477032	      0.90992340	    -10.38087361	      5.39289249	     -6.81452452	     14.70059392	      7.36313512	     13.86588398	     18.74376078	      0.32714034	      4.78469393	     -3.95929877	     -6.81452452	     -3.15343758	     -5.32712216	      3.04080291	    -10.17554042	     -4.78553834	    -14.76704252	     38.12805589	    111.75807207	     -6.81069799	     -7.83606496	    -17.54678296	     24.71708316	    108.67852456
      0.76000000	      1.04212420	      4.14581090	     -6.14249801	      0.84921299	      0.94700961	     -0.21376894	      1.73519410	     -5.74638867	      8.18805448	     55.11689778	      0.96197134	     -9.77823062	      5.58801569	     -6.82332258	     13.85896425	      7.44669427	     13.62703839	     17.98220024	      0.31384860	      5.35888040	     -3.62919781	     -6.82332258	     -2.83721650	     -5.47048993	      2.79602740	    -10.24919882	     -4.65539669	    -14.73692740	     37.67397292	    111.76502793	     -6.17989770	     -8.04163570	    -16.73316450	     25.09879677	    108.80458227
      0.77000000	      0.56638706	      4.18002050	     -6.31143728	      0.86032340	      0.94792551	     -0.21422220	      4.64906447	     -5.57209026	      8.77112820	     57.72602733	      1.00750924	     -8.03550893	      6.50824733	     -6.84829950	     13.38692352	      7.39973048	     13.09929907	     17.54779908	      0.30626687	      6.01479884	     -2.87278354	     -6.84829950	     -2.34251203	     -5.49821530	      2.61771980	    -10.32739014	     -4.51365339	    -14.74648620	     37.12594946	    111.80483759	     -5.50547305	     -8.44715004	    -14.85488959	     25.35156939	    108.98958080
      0.78000000	      0.40501057	      4.11626711	     -6.51235899	      0.87155019	      0.94947600	     -0.21449537	      7.01902878	     -5.22243543	      9.33457354	     59.62340330	      1.04062470	     -6.86597636	      6.01935376	     -6.85408654	     12.30948496	      7.29895324	     13.04336997	     16.68018339	      0.29112412	      6.45697745	     -2.56614619	     -6.85408654	     -2.25668371	     -5.46496311	      2.37641031	    -10.41456670	     -4.36712201	    -14.79545275	     36.86553799	    111.80039108	     -4.79391454	     -8.61447282	    -14.42148981	     25.79110895	    109.04899359
      0.79000000	     -0.01181046	      4.04859591	     -6.58624757	      0.88259266	      0.95052525	     -0.21493520	      9.65169662	     -4.91656386	      9.62285310	     61.20983052	      1.06831308	     -4.84257346	      6.16972608	     -6.88015131	     11.76252312	      7.15244535	     12.51716431	     16.22090776	      0.28310825	      7.12598152	     -1.61078975	     -6.88015131	     -1.87601182	     -5.36795677	      2.23321637	    -10.60072136	     -4.17370573	    -15.16181031	     36.44517550	    111.81422650	     -4.12116329	     -8.95225469	    -12.83155170	     26.38150464	    109.14561581
      0.80000000	     -0.19054742	      3.80867851	     -6.59645017	      0.89377798	      0.95212134	     -0.21535060	     11.77589478	     -4.38941152	      9.82326960	     62.08748537	      1.08363104	     -3.44969284	      5.32756748	     -6.88629735	     10.74693083	      6.88817883	     12.52639905	     15.43981000	      0.26947552	      7.47145026	     -1.25187632	     -6.88629735	     -1.81778055	     -5.12364073	      1.93861939	    -10.77805095	     -4.05419393	    -15.29307668	     36.19623715	    111.80564358	     -3.38712386	     -9.07152034	    -12.45707264	     26.95426052	    109.19561911
      0.81000000	     -0.40006137	      3.51684195	     -6.49164133	      0.90483007	      0.95359395	     -0.21588742	     13.83352944	     -3.86243445	      9.80605642	     62.53863475	      1.09150509	     -1.97862415	      4.44066726	     -6.90787301	      9.91555631	      6.55822906	     12.27234706	     14.92543781	      0.26049803	      8.10610361	     -0.27277302	     -6.90787301	     -1.78101251	     -4.80553625	      1.58412549	    -10.92733649	     -3.86696118	    -15.85208212	     35.90639068	    111.80670586	     -2.77450188	     -9.31613534	    -11.38237584	     27.86967758	    109.25994291
      0.82000000	     -0.56541046	      3.11988118	     -6.30439266	      0.91590262	      0.95522335	     -0.21662008	     15.66155028	     -3.25516774	      9.70826965	     62.43942733	      1.08977359	     -0.72119471	      3.53207982	     -6.91234536	      8.94131257	      6.17057060	     12.43215991	     14.24300940	      0.24858741	      8.34598780	      0.06220995	     -6.91234536	     -1.79640553	     -4.34915188	      1.19627150	    -11.14362172	     -3.82321571	    -15.99138911	     35.69485609	    111.79863092	     -1.99522669	     -9.32349057	    -11.12318590	     28.49277003	    109.31148783
      0.83000000	     -0.55772814	      2.72180801	     -5.99023472	      0.92694524	      0.95702259	     -0.21745016	     17.12177497	     -2.71834881	      9.45527966	     61.86124772	      1.07968245	      0.52957288	      1.99828571	     -6.92462230	      7.83176134	      5.79946550	     12.54675873	     13.65392311	      0.23830591	      8.85732564	      0.79336417	     -6.92462230	     -2.07376929	     -3.92631511	      0.65507622	    -11.26553023	     -3.69800925	    -16.45718600	     35.44147949	    111.78469103	     -1.36937769	     -9.46130088	    -10.48212023	     29.59149246	    109.40261591
      0.84000000	     -0.57625549	      2.24212671	     -5.63196649	      0.93790017	      0.95874877	     -0.21839335	     18.46115277	     -2.12744518	      9.16561341	     60.81421405	      1.06140827	      1.47078969	      0.51503651	     -6.93766406	      6.74756428	      5.33694665	     12.74160715	     13.04013696	      0.22759332	      9.26009172	      1.46398412	     -6.93766406	     -2.32018848	     -3.37856902	      0.14116074	    -11.43646562	     -3.63742565	    -16.84735643	     35.25508465	    111.79196720	     -0.66936996	     -9.49972674	    -10.00576924	     30.57562072	    109.45997020
      0.85000000	     -0.51203898	      1.76623185	     -5.21324246	      0.94884416	      0.96047248	     -0.21946498	     19.56641826	     -1.61052648	      8.82629108	     59.37081590	      1.03621622	      2.27974792	     -1.11303063	     -6.95040507	      5.58582881	      4.89095499	     13.02058635	     12.43166054	      0.21697341	      9.61681033	      2.04256945	     -6.95040507	     -2.66475549	     -2.82953187	     -0.41735839	    -11.59024708	     -3.62842048	    -17.17774659	     35.08881027	    111.80129227	      0.01824008	     -9.51133954	     -9.59102993	     31.62649897	    109.52429359
      0.86000000	     -0.40845425	      1.29659259	     -4.75364011	      0.95976465	      0.96210281	     -0.22057210	     20.48560652	     -1.13823288	      8.47761742	     57.55109874	      1.00445616	      2.81725082	     -2.90938114	     -6.96440317	      4.39672587	      4.44636492	     13.33937505	     11.82433340	      0.20637355	      9.92119329	      2.57604215	     -6.96440317	     -3.04806581	     -2.28373622	     -0.97986950	    -11.74484632	     -3.64328838	    -17.44276349	     34.93597622	    111.81477366	      0.69316106	     -9.51132421	     -9.22685085	     32.76536798	    109.59107619
